<?xml version="1.0" encoding="utf-8"?>
<!-- Generator: Adobe Illustrator 26.5.0, SVG Export Plug-In . SVG Version: 6.00 Build 0)  -->
<svg version="1.1" id="Layer_1" xmlns="http://www.w3.org/2000/svg" xmlns:xlink="http://www.w3.org/1999/xlink" x="0px" y="0px"
	 viewBox="0 0 181.8 65.5" style="enable-background:new 0 0 181.8 65.5;" xml:space="preserve">
<style type="text/css">
	.st0{fill:#005AA9;}
</style>
<g>
	<path class="st0" d="M63.1,16.6c0.9,0.9,1.6,2.1,2.1,3.4c0.5,1.3,0.8,2.8,0.8,4.4c0,1.6-0.3,3.1-0.8,4.4s-1.2,2.4-2.1,3.4
		c-0.9,0.9-1.9,1.6-3.1,2.1c-1.2,0.5-2.4,0.7-3.8,0.7c-1.4,0-2.7-0.3-3.9-0.8c-1.2-0.5-2.2-1.3-3.1-2.2c-0.9-0.9-1.5-2.1-2-3.4
		c-0.5-1.3-0.7-2.7-0.7-4.2c0-1.7,0.3-3.1,0.8-4.4c0.5-1.3,1.2-2.4,2.1-3.4c0.9-0.9,1.9-1.7,3.1-2.1c1.2-0.5,2.4-0.7,3.7-0.7
		c1.3,0,2.6,0.3,3.8,0.8C61.2,15,62.3,15.7,63.1,16.6z M61,31c0.5-0.9,0.9-1.9,1.2-2.9c0.2-1.1,0.4-2.3,0.4-3.7
		c0-1.4-0.1-2.7-0.4-3.8c-0.3-1.2-0.7-2.2-1.2-3c-0.5-0.8-1.2-1.4-2-1.9c-0.8-0.5-1.7-0.7-2.7-0.7c-1.1,0-2.1,0.3-2.9,0.8
		c-0.8,0.5-1.5,1.2-2,2.1c-0.5,0.8-0.8,1.8-1.1,3c-0.2,1.1-0.4,2.3-0.4,3.6c0,1.4,0.1,2.6,0.4,3.7c0.2,1.1,0.6,2.1,1.2,3
		c0.5,0.8,1.2,1.5,1.9,2c0.8,0.5,1.7,0.7,2.8,0.7c1,0,1.9-0.2,2.8-0.7C59.8,32.5,60.5,31.8,61,31z"/>
	<path class="st0" d="M83.6,19.2c0,1.1-0.2,2-0.6,2.8s-1,1.5-1.7,2c-0.7,0.5-1.5,0.9-2.4,1.2c-0.9,0.2-1.8,0.4-2.8,0.4h-2.3v6.2
		c0,0.3,0.1,0.6,0.2,0.9c0.1,0.3,0.3,0.4,0.7,0.6c0.2,0.1,0.5,0.1,0.9,0.2s0.8,0.1,1.2,0.1v1h-8.7v-1c0.2,0,0.6-0.1,1-0.1
		c0.4,0,0.7-0.1,0.9-0.2c0.3-0.1,0.5-0.3,0.6-0.5c0.1-0.2,0.2-0.5,0.2-0.9V17.1c0-0.3,0-0.6-0.1-0.9c-0.1-0.3-0.3-0.5-0.7-0.6
		c-0.4-0.1-0.7-0.2-1.1-0.3c-0.4-0.1-0.7-0.1-0.9-0.1v-1h9.3c1.9,0,3.4,0.5,4.6,1.4C83.1,16.5,83.6,17.7,83.6,19.2z M79.3,22.7
		c0.3-0.5,0.5-0.9,0.6-1.4c0.1-0.5,0.2-0.9,0.2-1.3c0-0.5-0.1-1.1-0.2-1.7c-0.1-0.6-0.4-1.1-0.7-1.5c-0.3-0.4-0.8-0.8-1.3-1
		c-0.5-0.2-1.2-0.4-2-0.4h-2v9h1.5c1,0,1.9-0.2,2.5-0.5C78.5,23.5,79,23.1,79.3,22.7z"/>
	<path class="st0" d="M105.3,34.5h-5.5c-1.2-1.9-2.3-3.5-3.3-4.9s-2-2.8-3.2-4.3h-2.1v6.4c0,0.3,0.1,0.6,0.2,0.9
		c0.1,0.3,0.3,0.4,0.7,0.6c0.2,0.1,0.5,0.1,0.9,0.2s0.8,0.1,1.1,0.1v1h-8.6v-1c0.2,0,0.6-0.1,1-0.1c0.4,0,0.7-0.1,0.9-0.2
		c0.3-0.1,0.5-0.3,0.6-0.5c0.1-0.2,0.2-0.5,0.2-0.9V17c0-0.3,0-0.6-0.1-0.9c-0.1-0.3-0.3-0.5-0.7-0.6c-0.2-0.1-0.5-0.2-0.9-0.2
		c-0.4-0.1-0.7-0.1-1-0.1v-1h9.4c0.9,0,1.7,0.1,2.4,0.3c0.8,0.2,1.4,0.5,2,0.9c0.6,0.4,1.1,0.9,1.4,1.5c0.4,0.6,0.5,1.4,0.5,2.2
		c0,0.8-0.1,1.5-0.4,2.1c-0.2,0.6-0.6,1.1-1.1,1.6c-0.4,0.4-0.9,0.8-1.5,1.1c-0.6,0.3-1.3,0.6-2,0.8c1,1.3,1.8,2.4,2.5,3.4
		c0.7,0.9,1.5,2,2.4,3.3c0.4,0.6,0.8,1,1.1,1.3c0.3,0.3,0.7,0.5,1,0.7c0.2,0.1,0.6,0.2,0.9,0.3c0.4,0.1,0.7,0.1,0.9,0.1V34.5z
		 M97.8,19.4c0-1.2-0.4-2.2-1.1-2.9s-1.7-1.1-3-1.1h-2.4v8.7h1.9c1.3,0,2.4-0.4,3.3-1.3C97.3,21.9,97.8,20.8,97.8,19.4z"/>
</g>
<g>
	<g>
		<path class="st0" d="M38.8,24.6c0-0.7-0.1-1.5-0.2-2.2c-0.1-0.3-0.3-0.5-0.4-0.8c-2.6-4-7.8-5.4-12.1-3.4c-4.2,2-6.6,7-5.3,11.5
			c0.8,2.7,2.7,5,5.3,6.1c1.7,0.7,3.6,1,5.4,0.7c0.4-0.1,0.7-0.2,1.1-0.3C36.4,33.8,38.8,29.5,38.8,24.6"/>
		<path class="st0" d="M16.4,20.9c-1.2,3.8-0.5,7.9,1.8,11c-0.9-1.6-1.5-3.5-1.6-5.4c-0.3-5.8,3.7-11.2,9.5-12.9
			c2.5-0.7,5.1-0.7,7.5-0.1c-0.8-0.7-1.8-1.3-2.8-1.7c-0.4,0-0.7-0.1-1.1-0.1C23.8,11.7,18.1,15.4,16.4,20.9"/>
		<path class="st0" d="M20.2,32.1c-2.6-5.2-0.7-11.8,4.3-14.7c4.2-2.5,9.5-1.9,13,1.2c-0.4-0.9-1-1.8-1.6-2.7
			c-4.7-2.6-10.9-1.8-14.6,2c-4,4.1-4.4,10.6-0.6,14.9C20.5,32.7,20.4,32.4,20.2,32.1"/>
		<path class="st0" d="M20.4,36c-4.9-3.2-7.2-9.2-5.7-14.8c1.5-5.4,6.1-9.6,11.7-10.7c-0.5-0.1-1.1-0.1-1.7-0.1
			c-7.8,0-14.1,6.3-14.1,14.1c0,7.8,6.3,14.1,14.1,14.1c1,0,2.1-0.1,3-0.3C25.2,38.3,22.6,37.5,20.4,36"/>
	</g>
</g>
<g>
	<path class="st0" d="M57.4,50.8h-1.6v-10h5.6v1.4h-4v3.1h3.8v1.4h-3.8V50.8z"/>
	<path class="st0" d="M70,47c0,1.2-0.3,2.2-1,2.9c-0.6,0.7-1.5,1-2.6,1c-0.7,0-1.3-0.2-1.9-0.5c-0.5-0.3-1-0.8-1.3-1.4
		c-0.3-0.6-0.4-1.3-0.4-2.1c0-1.2,0.3-2.2,0.9-2.9c0.6-0.7,1.5-1,2.7-1c1.1,0,2,0.4,2.6,1.1S70,45.8,70,47z M64.3,41.2
		c0-0.3,0.1-0.5,0.2-0.6c0.2-0.1,0.3-0.2,0.6-0.2c0.2,0,0.4,0.1,0.6,0.2c0.1,0.1,0.2,0.3,0.2,0.6c0,0.2-0.1,0.4-0.2,0.6
		c-0.1,0.1-0.3,0.2-0.6,0.2c-0.2,0-0.4-0.1-0.6-0.2C64.4,41.7,64.3,41.5,64.3,41.2z M64.5,47c0,1.7,0.6,2.6,1.9,2.6
		c1.3,0,1.9-0.9,1.9-2.6c0-1.7-0.6-2.6-1.9-2.6c-0.7,0-1.2,0.2-1.5,0.7C64.7,45.5,64.5,46.1,64.5,47z M67,41.2
		c0-0.3,0.1-0.5,0.2-0.6c0.2-0.1,0.3-0.2,0.6-0.2c0.2,0,0.4,0.1,0.6,0.2c0.1,0.1,0.2,0.3,0.2,0.6c0,0.2-0.1,0.4-0.2,0.6
		S68,42,67.8,42c-0.2,0-0.4-0.1-0.6-0.2C67.1,41.7,67,41.5,67,41.2z"/>
	<path class="st0" d="M76,43.1c0.3,0,0.6,0,0.8,0.1l-0.2,1.5c-0.2-0.1-0.5-0.1-0.7-0.1c-0.6,0-1.2,0.2-1.6,0.6
		c-0.4,0.4-0.6,1-0.6,1.6v4h-1.6v-7.6h1.3l0.2,1.3h0.1c0.3-0.5,0.6-0.8,1-1.1C75.1,43.2,75.5,43.1,76,43.1z"/>
	<path class="st0" d="M81.5,50.9c-1.2,0-2.1-0.3-2.8-1c-0.7-0.7-1-1.6-1-2.8c0-1.2,0.3-2.2,0.9-2.9c0.6-0.7,1.5-1.1,2.5-1.1
		c1,0,1.8,0.3,2.4,0.9c0.6,0.6,0.9,1.4,0.9,2.5v0.9h-5c0,0.7,0.2,1.3,0.6,1.7c0.4,0.4,0.9,0.6,1.6,0.6c0.4,0,0.9,0,1.2-0.1
		c0.4-0.1,0.8-0.2,1.2-0.4v1.3c-0.4,0.2-0.8,0.3-1.2,0.4C82.5,50.9,82,50.9,81.5,50.9z M81.2,44.3c-0.5,0-0.9,0.2-1.2,0.5
		c-0.3,0.3-0.5,0.8-0.6,1.4h3.4c0-0.6-0.2-1.1-0.5-1.4C82.1,44.5,81.7,44.3,81.2,44.3z"/>
	<path class="st0" d="M89.9,49.6c0.4,0,0.8-0.1,1.2-0.2v1.2c-0.2,0.1-0.4,0.1-0.7,0.2c-0.3,0.1-0.6,0.1-0.9,0.1
		c-1.5,0-2.3-0.8-2.3-2.4v-4.1h-1v-0.7l1.1-0.6l0.5-1.6h1v1.7H91v1.2h-2.2v4c0,0.4,0.1,0.7,0.3,0.9C89.4,49.5,89.6,49.6,89.9,49.6z"
		/>
	<path class="st0" d="M98.2,50.8l-0.3-1.1h-0.1c-0.4,0.5-0.7,0.8-1.1,0.9c-0.4,0.2-0.8,0.2-1.4,0.2c-0.7,0-1.3-0.2-1.7-0.6
		c-0.4-0.4-0.6-1-0.6-1.7c0-0.8,0.3-1.4,0.9-1.8c0.6-0.4,1.5-0.6,2.6-0.6l1.3,0v-0.4c0-0.5-0.1-0.8-0.3-1.1s-0.6-0.4-1-0.4
		c-0.4,0-0.8,0.1-1.1,0.2c-0.4,0.1-0.7,0.2-1,0.4l-0.5-1.1c0.4-0.2,0.9-0.4,1.3-0.5c0.5-0.1,0.9-0.2,1.4-0.2c1,0,1.7,0.2,2.2,0.6
		c0.5,0.4,0.7,1.1,0.7,2v5.1H98.2z M95.8,49.7c0.6,0,1.1-0.2,1.4-0.5c0.4-0.3,0.5-0.8,0.5-1.4v-0.7l-1,0c-0.8,0-1.3,0.2-1.7,0.4
		c-0.3,0.2-0.5,0.6-0.5,1c0,0.3,0.1,0.6,0.3,0.8C95.1,49.6,95.4,49.7,95.8,49.7z"/>
	<path class="st0" d="M108.8,43.2v0.9l-1.3,0.2c0.1,0.2,0.2,0.4,0.3,0.6c0.1,0.2,0.1,0.5,0.1,0.7c0,0.8-0.3,1.4-0.8,1.8
		c-0.5,0.4-1.3,0.7-2.2,0.7c-0.2,0-0.5,0-0.7-0.1c-0.3,0.2-0.5,0.5-0.5,0.8c0,0.2,0.1,0.3,0.2,0.4c0.2,0.1,0.5,0.1,0.9,0.1h1.3
		c0.8,0,1.5,0.2,1.9,0.5c0.4,0.4,0.6,0.9,0.6,1.5c0,0.9-0.4,1.5-1.1,2c-0.7,0.5-1.7,0.7-3.1,0.7c-1,0-1.8-0.2-2.4-0.5
		c-0.5-0.4-0.8-0.9-0.8-1.6c0-0.5,0.1-0.9,0.4-1.2c0.3-0.3,0.7-0.5,1.2-0.7c-0.2-0.1-0.4-0.2-0.5-0.4c-0.1-0.2-0.2-0.4-0.2-0.6
		c0-0.3,0.1-0.5,0.2-0.7c0.2-0.2,0.4-0.4,0.7-0.6c-0.4-0.2-0.7-0.4-1-0.8c-0.2-0.4-0.4-0.8-0.4-1.3c0-0.8,0.3-1.5,0.8-1.9
		c0.5-0.5,1.3-0.7,2.2-0.7c0.2,0,0.4,0,0.7,0c0.2,0,0.4,0.1,0.5,0.1H108.8z M102.9,51.9c0,0.3,0.2,0.6,0.5,0.8
		c0.3,0.2,0.8,0.3,1.3,0.3c0.9,0,1.5-0.1,2-0.4c0.4-0.2,0.6-0.6,0.6-1c0-0.3-0.1-0.6-0.4-0.7c-0.2-0.1-0.7-0.2-1.3-0.2h-1.2
		c-0.5,0-0.8,0.1-1.1,0.3C103,51.3,102.9,51.6,102.9,51.9z M103.5,45.7c0,0.5,0.1,0.8,0.4,1.1c0.2,0.3,0.6,0.4,1,0.4
		c0.9,0,1.4-0.5,1.4-1.5c0-0.5-0.1-0.9-0.3-1.1c-0.2-0.3-0.6-0.4-1-0.4c-0.5,0-0.8,0.1-1.1,0.4C103.7,44.8,103.5,45.2,103.5,45.7z"
		/>
	<path class="st0" d="M116.1,48.6c0,0.7-0.3,1.3-0.8,1.7c-0.5,0.4-1.3,0.6-2.3,0.6c-1,0-1.8-0.2-2.4-0.5v-1.4
		c0.9,0.4,1.7,0.6,2.5,0.6c1,0,1.5-0.3,1.5-0.9c0-0.2-0.1-0.4-0.2-0.5c-0.1-0.1-0.3-0.3-0.5-0.4c-0.2-0.1-0.6-0.3-1-0.5
		c-0.9-0.3-1.5-0.7-1.8-1c-0.3-0.3-0.5-0.8-0.5-1.3c0-0.6,0.3-1.1,0.8-1.5c0.5-0.4,1.2-0.5,2.1-0.5c0.9,0,1.7,0.2,2.5,0.5l-0.5,1.2
		c-0.8-0.3-1.5-0.5-2.1-0.5c-0.8,0-1.3,0.2-1.3,0.7c0,0.2,0.1,0.4,0.3,0.6c0.2,0.2,0.7,0.4,1.4,0.7c0.6,0.2,1.1,0.5,1.4,0.7
		c0.3,0.2,0.5,0.4,0.6,0.7C116,47.9,116.1,48.3,116.1,48.6z"/>
	<path class="st0" d="M120,50.8h-1.6V40.1h1.6V50.8z"/>
	<path class="st0" d="M127.6,50.8l-0.3-1.1h-0.1c-0.4,0.5-0.7,0.8-1.1,0.9c-0.4,0.2-0.8,0.2-1.4,0.2c-0.7,0-1.3-0.2-1.7-0.6
		c-0.4-0.4-0.6-1-0.6-1.7c0-0.8,0.3-1.4,0.9-1.8c0.6-0.4,1.5-0.6,2.6-0.6l1.3,0v-0.4c0-0.5-0.1-0.8-0.3-1.1s-0.6-0.4-1-0.4
		c-0.4,0-0.8,0.1-1.1,0.2c-0.4,0.1-0.7,0.2-1,0.4l-0.5-1.1c0.4-0.2,0.9-0.4,1.3-0.5c0.5-0.1,0.9-0.2,1.4-0.2c1,0,1.7,0.2,2.2,0.6
		c0.5,0.4,0.7,1.1,0.7,2v5.1H127.6z M125.2,49.7c0.6,0,1.1-0.2,1.4-0.5c0.4-0.3,0.5-0.8,0.5-1.4v-0.7l-1,0c-0.8,0-1.3,0.2-1.7,0.4
		c-0.3,0.2-0.5,0.6-0.5,1c0,0.3,0.1,0.6,0.3,0.8C124.5,49.6,124.8,49.7,125.2,49.7z M127.5,40.7c0,0.5-0.1,0.8-0.4,1.1
		c-0.3,0.3-0.7,0.4-1.2,0.4s-0.9-0.1-1.2-0.4c-0.3-0.3-0.4-0.7-0.4-1.1c0-0.5,0.1-0.8,0.4-1.1c0.3-0.3,0.7-0.4,1.2-0.4
		c0.5,0,0.9,0.1,1.2,0.4C127.3,39.9,127.5,40.3,127.5,40.7z M126.6,40.8c0-0.2-0.1-0.4-0.2-0.5s-0.3-0.2-0.5-0.2
		c-0.2,0-0.4,0.1-0.5,0.2s-0.2,0.3-0.2,0.5c0,0.5,0.2,0.7,0.7,0.7c0.2,0,0.4-0.1,0.5-0.2C126.5,41.2,126.6,41,126.6,40.8z"/>
	<path class="st0" d="M138.2,50.8h-1.6v-4.6c0-0.6-0.1-1-0.4-1.3c-0.2-0.3-0.6-0.4-1.1-0.4c-0.7,0-1.2,0.2-1.5,0.6
		c-0.3,0.4-0.5,1.1-0.5,2v3.8h-1.6v-7.6h1.3l0.2,1h0.1c0.2-0.4,0.6-0.6,1-0.8c0.4-0.2,0.9-0.3,1.4-0.3c1.8,0,2.7,0.9,2.7,2.8V50.8z"
		/>
</g>
</svg>
