<svg xmlns="http://www.w3.org/2000/svg" width="137" height="38" viewBox="0 0 137 38">
    <g fill="none" fill-rule="evenodd">
        <g fill="#005BAA" fill-rule="nonzero">
            <g>
                <g>
                    <path d="M6.47 7.939L10.15.839 12.917.839 7.733 10.367 7.733 16.411 5.174 16.411 5.174 10.454.012.839 2.778.839zM20.474 4.41c.501 0 .915.033 1.242.11l-.24 2.33c-.36-.087-.73-.13-1.11-.13-1.003 0-1.808.326-2.43.98-.62.653-.936 1.502-.936 2.547V16.4h-2.504V4.628h1.96l.326 2.08h.131c.392-.708.904-1.263 1.525-1.677.631-.414 1.307-.62 2.036-.62zM24.405 1.503c0-.447.12-.795.37-1.035.251-.24.6-.36 1.046-.36.436 0 .784.12 1.024.36s.37.588.37 1.035c0 .425-.12.762-.37 1.002s-.588.37-1.024.37c-.457 0-.806-.12-1.045-.37-.24-.24-.37-.567-.37-1.002zm2.658 14.908h-2.505V4.628h2.505v11.783zM35.677 14.603c.61 0 1.22-.098 1.83-.283v1.884c-.273.12-.632.218-1.068.305-.436.087-.893.12-1.361.12-2.374 0-3.561-1.252-3.561-3.746V6.534h-1.612v-1.11l1.72-.916.85-2.493h1.546v2.624h3.354v1.895h-3.354v6.305c0 .6.153 1.046.458 1.34.316.272.708.424 1.198.424zM38.737 4.628h2.722l2.396 6.676c.36.947.599 1.851.73 2.679h.087c.065-.392.185-.86.348-1.427.174-.555 1.067-3.201 2.701-7.939h2.7l-5.041 13.34c-.915 2.45-2.44 3.681-4.585 3.681-.555 0-1.09-.065-1.623-.185v-1.96c.381.087.806.13 1.285.13 1.21 0 2.059-.696 2.549-2.101l.435-1.11-4.704-11.784zM60.789 13.057c0 1.154-.414 2.037-1.252 2.646-.839.61-2.037.926-3.605.926s-2.831-.24-3.779-.719v-2.167c1.383.643 2.68.959 3.866.959 1.547 0 2.309-.469 2.309-1.394 0-.294-.087-.545-.262-.74-.174-.197-.446-.404-.838-.622-.392-.217-.937-.457-1.634-.73-1.36-.522-2.276-1.045-2.755-1.578-.479-.534-.718-1.21-.718-2.048 0-1.012.402-1.786 1.22-2.352.816-.555 1.916-.838 3.32-.838 1.384 0 2.69.283 3.932.838l-.806 1.884c-1.274-.523-2.341-.784-3.202-.784-1.317 0-1.982.381-1.982 1.133 0 .37.175.686.512.936.349.261 1.1.61 2.255 1.056.969.382 1.677.72 2.123 1.035.436.316.762.675.98 1.078.218.403.316.915.316 1.481zM17.229 36.002L14.604 36.002 14.604 18.644 17.229 18.644zM30.373 36.002l-.37-1.622h-.13c-.36.577-.883 1.023-1.558 1.35-.675.327-1.437.49-2.309.49-1.492 0-2.613-.37-3.343-1.11-.74-.741-1.1-1.874-1.1-3.387v-8.07h2.646v7.612c0 .948.196 1.655.578 2.124.38.468.99.708 1.818.708 1.1 0 1.906-.327 2.429-.991.512-.654.773-1.765.773-3.311v-6.153h2.635v12.339h-2.069v.021zM47.35 29.806c0 2.015-.511 3.594-1.546 4.715-1.034 1.133-2.472 1.7-4.323 1.7-1.154 0-2.178-.262-3.06-.785-.882-.523-1.568-1.263-2.047-2.243-.48-.97-.72-2.102-.72-3.387 0-2.004.513-3.561 1.536-4.683 1.024-1.121 2.472-1.688 4.345-1.688 1.786 0 3.202.577 4.237 1.72 1.056 1.155 1.579 2.702 1.579 4.65zm-8.984 0c0 2.853 1.057 4.269 3.159 4.269 2.08 0 3.125-1.427 3.125-4.27 0-2.82-1.045-4.224-3.147-4.224-1.1 0-1.895.359-2.396 1.089-.49.73-.74 1.775-.74 3.136zM55.638 34.107c.643 0 1.274-.098 1.917-.304v1.97c-.294.131-.665.23-1.122.316-.457.088-.937.131-1.427.131-2.483 0-3.724-1.307-3.724-3.931v-6.654h-1.688V24.47l1.808-.958.893-2.614h1.622v2.744h3.518v1.982h-3.518v6.61c0 .632.153 1.1.469 1.405.326.316.74.468 1.252.468zM65.308 34.107c.643 0 1.274-.098 1.917-.304v1.97c-.294.131-.664.23-1.122.316-.457.088-.936.131-1.426.131-2.483 0-3.725-1.307-3.725-3.931v-6.654h-1.688V24.47l1.808-.958.893-2.614h1.623v2.744h3.517v1.982h-3.517v6.61c0 .632.152 1.1.468 1.405.327.316.74.468 1.252.468zM81.328 29.806c0 2.015-.523 3.594-1.547 4.715-1.024 1.122-2.472 1.7-4.312 1.7-1.155 0-2.178-.262-3.06-.785-.882-.523-1.569-1.263-2.048-2.243-.479-.97-.718-2.102-.718-3.387 0-2.004.511-3.561 1.535-4.683 1.024-1.121 2.472-1.688 4.345-1.688 1.786 0 3.202.577 4.236 1.72 1.046 1.155 1.569 2.702 1.569 4.65zm-8.985 0c0 2.853 1.057 4.269 3.158 4.269 2.08 0 3.126-1.427 3.126-4.27 0-2.82-1.046-4.224-3.147-4.224-1.1 0-1.895.359-2.396 1.089-.49.73-.74 1.775-.74 3.136zM82.133 35.24c0-.294.077-.523.23-.686.152-.163.38-.24.663-.24.294 0 .523.088.676.25.152.164.228.393.228.676 0 .283-.076.512-.228.686-.153.174-.382.25-.676.25-.294 0-.511-.087-.664-.25-.152-.163-.229-.392-.229-.686zM89.528 30.35h-1.645v5.652h-1.437V30.35h-1.111v-.675l1.11-.435v-.436c0-.795.186-1.383.556-1.764.37-.381.948-.577 1.71-.577.5 0 1.002.087 1.481.25l-.381 1.09c-.349-.11-.686-.175-1.013-.175-.327 0-.555.098-.708.305-.152.196-.218.5-.218.904v.435h1.645v1.078h.01zM90.954 27.486c0-.25.066-.457.207-.588.142-.13.338-.207.6-.207.25 0 .446.066.587.207.142.142.207.338.207.588 0 .24-.065.436-.207.578-.141.141-.337.206-.588.206-.261 0-.457-.065-.599-.206-.141-.142-.207-.327-.207-.578zm1.525 8.516h-1.427v-6.73h1.427v6.73z" transform="translate(-537 -120) translate(537 120) translate(43.461)"/>
                </g>
                <g>
                    <path d="M37.396 18.753c0-.97-.076-1.939-.218-2.875-.174-.338-.359-.665-.566-.991-3.485-5.26-10.389-7.21-16.063-4.498-5.532 2.646-8.777 9.202-6.98 15.235 1.067 3.605 3.615 6.643 7.068 8.135 2.243.97 4.704 1.263 7.089.893.48-.098.947-.229 1.405-.37 4.998-3.365 8.265-9.072 8.265-15.53" transform="translate(-537 -120) translate(537 120)"/>
                    <path d="M7.677 13.907c-1.579 5.02-.653 10.487 2.385 14.592-1.252-2.145-2.025-4.574-2.145-7.133-.36-7.645 4.846-14.886 12.578-17.119 3.3-.947 6.72-.936 9.877-.109-1.121-.904-2.363-1.677-3.68-2.298-.469-.043-.937-.076-1.416-.076-7.765-.098-15.279 4.78-17.599 12.143" transform="translate(-537 -120) translate(537 120)"/>
                    <path d="M12.785 28.76c-3.452-6.817-.893-15.572 5.684-19.405 5.587-3.257 12.568-2.538 17.25 1.622-.577-1.252-1.285-2.428-2.102-3.517-6.163-3.409-14.385-2.407-19.373 2.69-5.27 5.38-5.837 14.015-.838 19.7-.218-.36-.436-.72-.621-1.09" transform="translate(-537 -120) translate(537 120)"/>
                    <path d="M12.97 33.922c-6.425-4.225-9.54-12.218-7.525-19.547C7.416 7.23 13.482 1.645 20.898.175c-.719-.088-1.46-.131-2.2-.131C8.374.044 0 8.418 0 18.753 0 29.087 8.374 37.45 18.709 37.45c1.383 0 2.723-.153 4.03-.436-3.442-.152-6.818-1.165-9.769-3.093" transform="translate(-537 -120) translate(537 120)"/>
                </g>
            </g>
        </g>
    </g>
</svg>
